{"title":"The Originals Season 3 S03 Complete [720p]~{KiNg}","uid":14805950,"size":7986080771,"categoryP":"video","categoryS":"hd___tv_shows","magnet":"?xt=urn:btih:ce990a5b76697908908060697d53a8e2f219e9ae&amp;dn=+The+Originals+Season+3+S03+Complete+%5B720p%5D%7E%7BKiNg%7D&amp;tr=udp%3A%2F%2Ftracker.leechers-paradise.org%3A6969&amp;tr=udp%3A%2F%2Fzer0day.ch%3A1337&amp;tr=udp%3A%2F%2Fopen.demonii.com%3A1337&amp;tr=udp%3A%2F%2Ftracker.coppersurfer.tk%3A6969&amp;tr=udp%3A%2F%2Fexodus.desync.com%3A6969","seeders":102,"leechers":40,"uploader":"Uplaoderking","files":22,"time":1465165106,"description":"General \r\nFormat : Matroska \r\nFormat version : Version 4 / Version 2 \r\nFile size : 344 MiB \r\nDuration : 42mn 9s \r\nOverall bit rate : 1 142 Kbps \r\n\r\nVideo \r\nID : 1 \r\nFormat : AVC \r\nFormat/Info : Advanced Video Codec \r\nFormat profile :    \r\nFormat settings, CABAC : Yes \r\nFormat settings, ReFrames : 4 frames \r\nCodec ID : V_MPEG4/ISO/AVC \r\nDuration : 42mn 9s \r\nBit rate : 1 059 Kbps \r\nWidth : 1 280 pixels \r\nHeight : 720 pixels \r\nDisplay aspect ratio : 16:9 \r\nFrame rate mode : Constant \r\nFrame rate : 23.976 (24000/1001) fps \r\nColor space : YUV \r\nChroma subsampling : 4:2:0 \r\nBit depth : 8 bits \r\nScan type : Progressive \r\nBits/(Pixel*Frame) : 0.048 \r\nStream size : 319 MiB (93%) \r\n\r\nAudio \r\nID : 2 \r\nFormat : AAC \r\nFormat/Info : Advanced Audio Codec \r\nFormat profile : LC \r\nCodec ID : A_AAC \r\nDuration : 42mn 8s \r\nBit rate : 81.0 Kbps \r\nChannel(s) : 2 channels \r\nChannel positions : Front: L R \r\nSampling rate : 48.0 KHz \r\nFrame rate : 46.875 fps (1024 spf) \r\nCompression mode : Lossy \r\nDelay relative to video : 9ms \r\nStream size : 24.4 MiB (7%) \r\nLanguage : English \r\nDefault : No \r\nForced : No","torrent":{"xt":"urn:btih:ce990a5b76697908908060697d53a8e2f219e9ae","amp;dn":"+The+Originals+Season+3+S03+Complete+%5B720p%5D%7E%7BKiNg%7D","amp;tr":["udp%3A%2F%2Ftracker.leechers-paradise.org%3A6969","udp%3A%2F%2Fzer0day.ch%3A1337","udp%3A%2F%2Fopen.demonii.com%3A1337","udp%3A%2F%2Ftracker.coppersurfer.tk%3A6969","udp%3A%2F%2Fexodus.desync.com%3A6969"],"infoHash":"ce990a5b76697908908060697d53a8e2f219e9ae","infoHashBuffer":{"type":"Buffer","data":[206,153,10,91,118,105,121,8,144,128,96,105,125,83,168,226,242,25,233,174]},"announce":[],"urlList":[]}}